<?xml version="1.0" standalone="no"?>
<!DOCTYPE svg PUBLIC "-//W3C//DTD SVG 20010904//EN"
 "http://www.w3.org/TR/2001/REC-SVG-20010904/DTD/svg10.dtd">
<svg version="1.0" xmlns="http://www.w3.org/2000/svg"
 width="742.000000pt" height="286.000000pt" viewBox="0 0 742.000000 286.000000"
 preserveAspectRatio="xMidYMid meet">

<g transform="translate(0.000000,286.000000) scale(0.100000,-0.100000)"
fill="#000000" stroke="none">
<path d="M1384 2751 c-44 -11 -91 -46 -191 -141 -121 -115 -224 -212 -388
-365 -276 -257 -300 -281 -335 -319 -22 -25 -28 -35 -15 -29 11 6 22 11 25 11
3 1 14 4 24 8 12 5 21 3 24 -4 2 -7 10 -19 18 -26 8 -8 14 -20 14 -26 0 -6 4
-9 10 -5 9 5 40 -16 64 -43 6 -7 21 -23 33 -34 12 -12 20 -25 17 -30 -3 -4 0
-8 6 -8 14 0 83 62 360 325 53 50 158 148 235 220 77 71 176 164 220 206 44
42 90 85 103 95 12 10 22 22 22 27 0 15 -111 112 -148 129 -40 19 -51 20 -98
9z m-892 -833 c-7 -7 -12 -8 -12 -2 0 14 12 26 19 19 2 -3 -1 -11 -7 -17z"/>
<path d="M1640 2477 c-30 -28 -213 -200 -405 -380 -193 -181 -350 -331 -350
-335 0 -9 204 -202 213 -202 8 0 42 30 142 124 313 295 454 425 464 429 2 1
73 -63 158 -143 84 -80 184 -174 223 -210 207 -193 351 -328 467 -439 l56 -54
66 58 c143 127 131 181 -83 381 -75 71 -272 255 -436 409 -164 154 -331 310
-371 348 -39 37 -76 67 -80 67 -5 0 -34 -24 -64 -53z"/>
<path d="M3570 2250 c-101 -27 -189 -72 -248 -125 -165 -151 -174 -439 -17
-584 91 -84 191 -116 463 -150 221 -28 272 -64 272 -188 0 -67 -26 -105 -97
-139 -56 -28 -63 -29 -208 -29 -174 0 -255 19 -344 80 l-52 36 -104 -92 c-58
-51 -105 -96 -105 -99 0 -13 120 -91 182 -119 181 -81 470 -100 683 -45 151
39 281 135 335 249 71 149 40 355 -70 465 -48 48 -156 101 -240 118 -30 7
-124 21 -208 31 -198 26 -257 52 -288 126 -32 77 13 167 104 207 117 52 378
19 464 -58 9 -9 21 -14 27 -13 10 4 106 86 171 147 l35 32 -30 26 c-40 34
-176 100 -250 120 -41 11 -113 18 -230 20 -146 3 -180 1 -245 -16z"/>
<path d="M6475 2256 c-176 -41 -301 -131 -362 -261 -26 -55 -28 -70 -28 -175
0 -105 2 -120 28 -175 66 -140 189 -207 444 -240 188 -24 275 -42 302 -63 49
-36 65 -69 66 -131 0 -48 -5 -64 -28 -94 -32 -43 -53 -55 -122 -73 -61 -17
-229 -18 -310 -3 -63 11 -166 54 -214 88 l-28 20 -54 -46 c-30 -25 -78 -67
-107 -94 l-52 -48 22 -21 c70 -66 238 -138 373 -160 93 -16 324 -16 405 -1
156 30 307 114 370 206 56 82 73 146 68 260 -4 86 -9 109 -36 166 -69 144
-187 207 -442 238 -282 34 -352 64 -367 154 -13 84 21 147 104 188 42 21 62
24 163 24 129 -1 224 -23 293 -70 l37 -26 29 23 c57 46 180 153 180 158 1 9
-122 89 -164 106 -113 47 -167 56 -340 60 -120 2 -188 -1 -230 -10z"/>
<path d="M4678 2254 c-4 -4 -8 -337 -8 -740 l0 -734 170 0 170 0 0 274 0 273
218 6 c220 5 282 14 377 54 194 82 310 281 277 476 -7 40 -23 94 -36 122 -48
105 -160 198 -296 246 -63 23 -77 24 -465 27 -220 2 -403 0 -407 -4z m745
-274 c85 -32 131 -97 130 -185 0 -82 -38 -136 -123 -174 -40 -18 -65 -21 -232
-21 l-188 0 0 200 0 200 180 0 c155 0 186 -3 233 -20z"/>
<path d="M1700 1940 c0 -5 -5 -10 -10 -10 -6 0 -21 -10 -33 -21 l-22 -21 31
15 c35 18 63 47 45 47 -6 0 -11 -4 -11 -10z"/>
<path d="M1720 1920 c0 -5 7 -10 16 -10 8 0 12 5 9 10 -3 6 -10 10 -16 10 -5
0 -9 -4 -9 -10z"/>
<path d="M501 1884 c0 -11 3 -14 6 -6 3 7 2 16 -1 19 -3 4 -6 -2 -5 -13z"/>
<path d="M425 1869 c8 -11 -12 -39 -27 -39 -6 0 -5 7 2 15 18 22 3 18 -23 -6
-19 -18 -19 -19 -3 -13 15 6 17 4 11 -6 -5 -9 4 -7 25 6 39 22 47 39 25 48
-10 3 -14 2 -10 -5z"/>
<path d="M1620 1869 c0 -5 5 -7 10 -4 6 3 10 8 10 11 0 2 -4 4 -10 4 -5 0 -10
-5 -10 -11z"/>
<path d="M1772 1855 c14 -27 13 -26 32 -19 9 3 16 11 16 16 0 7 -5 6 -13 -1
-18 -14 -30 -2 -16 15 8 10 6 13 -9 11 -17 -1 -19 -4 -10 -22z"/>
<path d="M1650 1861 c0 -5 6 -11 13 -14 6 -2 9 -8 5 -12 -4 -4 -14 -2 -22 4
-10 8 -16 9 -21 1 -10 -16 -28 -12 -21 6 3 9 -10 1 -29 -17 -37 -35 -40 -56
-2 -22 15 13 34 19 60 18 41 -2 50 5 41 29 -7 17 -24 22 -24 7z"/>
<path d="M467 1829 c7 -7 15 -10 18 -7 3 3 -2 9 -12 12 -14 6 -15 5 -6 -5z"/>
<path d="M1824 1828 c-4 -7 -4 -10 1 -6 4 4 15 2 24 -5 14 -11 14 -10 2 6 -16
20 -18 21 -27 5z"/>
<path d="M335 1790 c-3 -5 -1 -10 4 -10 6 0 11 5 11 10 0 6 -2 10 -4 10 -3 0
-8 -4 -11 -10z"/>
<path d="M1840 1792 c0 -15 28 -47 35 -40 4 3 -3 16 -14 27 -12 12 -21 17 -21
13z"/>
<path d="M370 1780 c0 -5 5 -10 10 -10 6 0 10 5 10 10 0 6 -4 10 -10 10 -5 0
-10 -4 -10 -10z"/>
<path d="M1555 1770 c-22 -25 -39 -26 -30 -2 5 13 3 14 -6 5 -17 -17 -1 -34
25 -27 16 4 25 0 30 -12 9 -24 0 -29 -21 -13 -10 7 -7 1 6 -14 14 -15 29 -27
35 -27 6 0 4 5 -4 10 -13 9 -13 11 0 20 12 8 13 11 1 19 -9 6 -10 11 -2 15 6
4 11 13 11 19 0 7 -4 6 -10 -3 -5 -8 -12 -11 -16 -7 -4 3 -1 13 6 22 19 23 -4
18 -25 -5z"/>
<path d="M301 1766 c-9 -11 -8 -15 4 -20 9 -3 14 -10 11 -15 -6 -9 26 -51 39
-51 5 0 -2 11 -15 25 -15 16 -19 25 -10 25 9 0 8 4 -5 13 -10 8 -15 19 -11 25
10 17 1 15 -13 -2z"/>
<path d="M650 1760 c0 -5 5 -10 11 -10 5 0 7 5 4 10 -3 6 -8 10 -11 10 -2 0
-4 -4 -4 -10z"/>
<path d="M1900 1748 c-12 -8 -12 -9 2 -5 9 3 19 1 22 -6 3 -9 5 -9 5 0 1 18
-13 23 -29 11z"/>
<path d="M350 1726 c0 -4 11 -19 24 -33 l24 -26 -1 26 c-1 14 -6 23 -10 20 -4
-3 -14 1 -22 7 -8 7 -15 9 -15 6z"/>
<path d="M1940 1721 c0 -5 5 -13 10 -16 6 -3 10 -2 10 4 0 5 -4 13 -10 16 -5
3 -10 2 -10 -4z"/>
<path d="M723 1700 c-2 -25 23 -46 30 -26 4 11 1 13 -10 9 -12 -5 -15 -2 -10
10 3 9 3 18 -1 21 -4 3 -8 -4 -9 -14z"/>
<path d="M1975 1690 c3 -5 8 -10 11 -10 2 0 4 5 4 10 0 6 -5 10 -11 10 -5 0
-7 -4 -4 -10z"/>
<path d="M123 1622 c-70 -66 -83 -87 -83 -137 0 -62 27 -99 168 -232 75 -70
173 -162 217 -203 44 -42 123 -116 175 -165 53 -50 177 -168 277 -264 100 -95
192 -180 203 -188 25 -17 23 -18 125 78 39 36 113 106 165 155 52 49 131 123
175 164 44 42 114 107 155 145 41 39 108 103 150 142 l75 73 -105 99 c-58 55
-109 100 -114 100 -9 1 -39 -26 -216 -193 -252 -238 -364 -342 -377 -349 -10
-6 -30 6 -66 39 -29 27 -54 51 -57 54 -3 3 -104 97 -225 210 -121 113 -297
278 -392 367 -94 90 -175 163 -180 163 -4 -1 -36 -27 -70 -58z"/>
<path d="M765 1670 c-3 -5 -1 -10 4 -10 6 0 11 5 11 10 0 6 -2 10 -4 10 -3 0
-8 -4 -11 -10z"/>
<path d="M2004 1633 c1 -32 6 -48 16 -50 13 -4 13 -3 0 6 -13 10 -13 12 -1 20
12 8 12 12 2 25 -7 8 -10 20 -7 25 4 5 2 12 -2 15 -5 3 -8 -16 -8 -41z"/>
<path d="M407 1628 c31 -33 48 -35 63 -9 13 25 13 41 0 21 -9 -13 -11 -13 -21
0 -8 11 -12 12 -16 3 -6 -17 -27 -17 -20 0 3 8 -3 13 -14 13 -16 0 -15 -4 8
-28z m43 -8 c0 -5 -4 -10 -10 -10 -5 0 -10 5 -10 10 0 6 5 10 10 10 6 0 10 -4
10 -10z"/>
<path d="M1643 1640 c-1 -11 6 -24 16 -29 14 -8 18 -6 18 7 0 18 -15 42 -26
42 -4 0 -7 -9 -8 -20z m27 -10 c0 -5 -4 -10 -10 -10 -5 0 -10 5 -10 10 0 6 5
10 10 10 6 0 10 -4 10 -10z"/>
<path d="M2063 1612 c15 -16 24 -32 20 -37 -5 -4 -3 -5 3 -2 13 7 67 -46 70
-69 4 -27 13 -28 11 -1 -1 17 -23 45 -60 81 -60 58 -92 78 -44 28z"/>
<path d="M810 1610 c-13 -9 -13 -11 0 -20 22 -14 26 -12 26 10 0 22 -4 24 -26
10z"/>
<path d="M857 1589 c7 -7 15 -10 18 -7 3 3 -2 9 -12 12 -14 6 -15 5 -6 -5z"/>
<path d="M521 1559 c11 -11 24 -18 27 -14 4 4 -2 13 -12 21 -30 21 -39 17 -15
-7z"/>
<path d="M1700 1574 c0 0 14 -13 32 -30 17 -16 28 -24 25 -17 -4 6 -4 18 -1
27 4 12 11 13 24 6 13 -7 20 -6 24 5 4 12 -5 14 -49 12 -30 -1 -55 -2 -55 -3z
m50 -14 c0 -5 -4 -10 -10 -10 -5 0 -10 5 -10 10 0 6 5 10 10 10 6 0 10 -4 10
-10z"/>
<path d="M2087 1539 c-4 -16 -3 -18 9 -8 7 6 11 15 8 20 -8 13 -11 11 -17 -12z"/>
<path d="M500 1546 c0 -2 8 -10 18 -17 15 -13 16 -12 3 4 -13 16 -21 21 -21
13z"/>
<path d="M547 1516 c-5 -13 13 -33 58 -65 11 -7 4 2 -16 21 -19 19 -33 40 -31
46 5 17 -5 15 -11 -2z"/>
<path d="M886 1513 c-6 -14 -5 -15 5 -6 7 7 10 15 7 18 -3 3 -9 -2 -12 -12z"/>
<path d="M930 1520 c0 -5 5 -10 11 -10 5 0 7 5 4 10 -3 6 -8 10 -11 10 -2 0
-4 -4 -4 -10z"/>
<path d="M2106 1514 c-17 -12 -17 -14 -4 -14 9 0 20 5 23 11 11 17 2 18 -19 3z"/>
<path d="M2180 1500 c0 -5 5 -10 11 -10 5 0 7 5 4 10 -3 6 -8 10 -11 10 -2 0
-4 -4 -4 -10z"/>
<path d="M621 1491 c-12 -8 -12 -11 1 -25 14 -14 16 -13 14 9 0 14 -1 25 -1
25 0 0 -6 -4 -14 -9z"/>
<path d="M964 1465 c0 -18 4 -31 8 -29 4 3 16 1 26 -5 15 -8 18 -6 19 12 0 12
-1 16 -4 10 -3 -7 -9 -13 -15 -13 -6 0 -8 7 -5 14 4 10 1 13 -9 9 -10 -3 -12
0 -8 10 3 8 1 17 -4 20 -4 3 -8 -9 -8 -28z"/>
<path d="M1801 1481 c21 -17 25 -17 32 -5 7 12 12 13 23 3 11 -9 18 -9 26 -1
9 9 7 12 -7 13 -11 0 -28 2 -38 4 -9 2 -15 -1 -11 -6 3 -5 1 -9 -5 -9 -5 0
-13 5 -16 10 -3 6 -11 10 -17 10 -5 0 0 -9 13 -19z"/>
<path d="M2202 1469 c2 -7 10 -15 17 -17 8 -3 12 1 9 9 -2 7 -10 15 -17 17 -8
3 -12 -1 -9 -9z"/>
<path d="M1893 1448 c4 -12 1 -29 -6 -37 -10 -12 -9 -13 9 -3 16 8 20 18 17
37 -3 14 -10 25 -15 25 -6 0 -8 -10 -5 -22z"/>
<path d="M2170 1456 c0 -9 5 -16 10 -16 6 0 10 4 10 9 0 6 -4 13 -10 16 -5 3
-10 -1 -10 -9z"/>
<path d="M1840 1452 c0 -11 22 -32 32 -32 5 0 4 9 -2 20 -11 20 -30 28 -30 12z"/>
<path d="M2246 1432 c-7 -12 4 -52 15 -52 5 0 9 9 9 20 0 11 0 23 1 27 1 11
-18 15 -25 5z"/>
<path d="M2198 1423 c7 -3 16 -2 19 1 4 3 -2 6 -13 5 -11 0 -14 -3 -6 -6z"/>
<path d="M1040 1416 c0 -2 8 -10 18 -17 15 -13 16 -12 3 4 -13 16 -21 21 -21
13z"/>
<path d="M1919 1402 c-15 -16 -14 -19 7 -40 27 -26 33 -18 7 10 -14 16 -15 18
0 18 9 0 19 -5 22 -10 5 -8 11 -8 19 -1 7 6 16 8 19 4 4 -3 7 -1 7 6 0 8 -7
11 -15 7 -19 -7 -47 3 -39 15 9 15 -10 9 -27 -9z"/>
<path d="M1968 1413 c7 -3 16 -2 19 1 4 3 -2 6 -13 5 -11 0 -14 -3 -6 -6z"/>
<path d="M690 1406 c0 -2 7 -7 16 -10 8 -3 12 -2 9 4 -6 10 -25 14 -25 6z"/>
<path d="M1086 1365 c4 -8 1 -15 -5 -15 -6 0 -11 5 -11 10 0 14 -17 12 -23 -3
-4 -11 19 -15 55 -8 10 1 -2 31 -13 31 -4 0 -6 -7 -3 -15z"/>
<path d="M2320 1376 c0 -2 8 -10 18 -17 15 -13 16 -12 3 4 -13 16 -21 21 -21
13z"/>
<path d="M1967 1346 c-3 -8 4 -22 16 -33 l22 -18 -19 23 c-11 12 -14 22 -8 22
6 0 14 -4 17 -10 3 -5 10 -10 16 -10 5 0 0 9 -11 20 -24 24 -26 24 -33 6z"/>
<path d="M2318 1343 c6 -2 12 -13 12 -24 0 -12 10 -23 26 -29 32 -12 34 -12
34 0 0 6 -9 10 -20 10 -13 0 -20 7 -20 19 0 17 -20 32 -38 30 -4 0 -1 -3 6 -6z"/>
<path d="M739 1328 c-10 -7 -7 -7 9 -3 23 7 32 -10 10 -18 -7 -2 -2 -4 12 -3
16 0 26 7 26 16 0 17 -37 22 -57 8z"/>
<path d="M2360 1330 c0 -6 8 -14 18 -17 9 -4 20 -11 24 -17 5 -8 8 -8 8 0 0 7
-11 19 -25 28 -14 9 -25 12 -25 6z"/>
<path d="M1120 1314 c0 -15 27 -50 34 -43 4 3 -2 17 -13 30 -11 13 -20 19 -21
13z"/>
<path d="M1150 1317 c0 -2 14 -16 31 -33 16 -16 28 -22 24 -14 -5 13 -55 56
-55 47z"/>
<path d="M2047 1311 c-17 -6 -17 -8 4 -26 22 -20 22 -20 17 2 -3 12 -1 24 6
27 6 2 7 4 1 5 -5 0 -18 -4 -28 -8z"/>
<path d="M2320 1281 c0 -15 44 -24 84 -17 28 5 36 3 41 -13 3 -10 13 -22 23
-25 9 -3 23 -9 31 -12 8 -4 -4 9 -25 29 -36 32 -44 35 -82 30 -26 -4 -47 -1
-57 7 -10 8 -15 9 -15 1z"/>
<path d="M2037 1259 c7 -7 15 -10 18 -7 3 3 -2 9 -12 12 -14 6 -15 5 -6 -5z"/>
<path d="M825 1250 c-4 -6 1 -7 11 -3 13 5 16 3 11 -10 -4 -11 -2 -14 9 -10
19 7 18 19 -2 27 -21 8 -22 8 -29 -4z"/>
<path d="M2127 1247 c-4 -10 -7 -28 -6 -40 0 -21 1 -21 10 2 5 14 8 32 7 40
-3 13 -5 13 -11 -2z"/>
<path d="M1205 1240 c3 -5 10 -10 16 -10 5 0 9 5 9 10 0 6 -7 10 -16 10 -8 0
-12 -4 -9 -10z"/>
<path d="M2070 1239 c0 -5 5 -7 10 -4 6 3 10 8 10 11 0 2 -4 4 -10 4 -5 0 -10
-5 -10 -11z"/>
<path d="M2410 1238 c0 -9 5 -20 11 -23 17 -11 20 0 4 21 -13 17 -14 17 -15 2z"/>
<path d="M1210 1210 c0 -5 5 -10 10 -10 6 0 10 5 10 10 0 6 -4 10 -10 10 -5 0
-10 -4 -10 -10z"/>
<path d="M2086 1206 c6 -15 -84 -103 -411 -406 -39 -36 -142 -133 -230 -216
-88 -82 -182 -170 -208 -194 l-48 -43 43 -45 c59 -62 125 -102 165 -102 55 0
122 43 243 156 258 241 409 383 495 465 49 47 105 98 124 115 47 41 74 81 56
81 -8 0 -11 -5 -8 -11 3 -6 -35 29 -85 78 -50 49 -98 93 -106 98 -9 5 -16 16
-16 23 0 8 -4 15 -10 15 -5 0 -7 -6 -4 -14z"/>
<path d="M2437 1191 c-17 -17 -16 -18 17 -7 22 7 30 13 23 18 -16 10 -19 10
-40 -11z"/>
<path d="M1286 1186 c6 -15 4 -17 -6 -11 -9 6 -11 4 -5 -4 5 -9 10 -10 18 -2
8 8 7 14 -2 24 -10 10 -11 8 -5 -7z"/>
<path d="M2500 1186 c-6 -8 -17 -13 -23 -11 -18 7 -46 -15 -29 -22 10 -4 10
-8 0 -21 -12 -15 -11 -15 4 -4 10 8 14 20 11 29 -5 12 -2 15 9 10 9 -3 26 3
39 14 12 10 17 19 12 19 -6 0 -16 -6 -23 -14z"/>
<path d="M1230 1175 c0 -8 5 -15 10 -15 19 0 10 -25 -12 -35 -12 -6 -24 -16
-26 -24 -4 -11 -2 -12 9 -3 8 7 25 21 39 33 17 14 21 22 13 25 -7 3 -13 12
-13 20 0 8 -4 14 -10 14 -5 0 -10 -7 -10 -15z"/>
<path d="M2145 1180 c3 -5 11 -10 16 -10 6 0 7 5 4 10 -3 6 -11 10 -16 10 -6
0 -7 -4 -4 -10z"/>
<path d="M906 1168 c3 -7 17 -22 32 -32 27 -19 27 -19 -2 12 -32 35 -38 38
-30 20z"/>
<path d="M942 1166 c7 -8 15 -12 17 -11 5 6 -10 25 -20 25 -5 0 -4 -6 3 -14z"/>
<path d="M2180 1160 c0 -5 5 -10 11 -10 5 0 7 5 4 10 -3 6 -8 10 -11 10 -2 0
-4 -4 -4 -10z"/>
<path d="M1205 1150 c-3 -5 -1 -10 4 -10 6 0 11 5 11 10 0 6 -2 10 -4 10 -3 0
-8 -4 -11 -10z"/>
<path d="M2404 1136 c0 -11 -2 -26 -5 -32 -2 -7 1 -12 6 -12 6 -1 9 5 7 13 -1
7 2 16 8 20 14 8 13 22 -2 28 -8 3 -13 -4 -14 -17z"/>
<path d="M2210 1130 c0 -5 5 -10 11 -10 5 0 7 5 4 10 -3 6 -8 10 -11 10 -2 0
-4 -4 -4 -10z"/>
<path d="M980 1089 c0 -5 5 -7 10 -4 6 3 10 8 10 11 0 2 -4 4 -10 4 -5 0 -10
-5 -10 -11z"/>
<path d="M1125 1089 c-4 -6 -4 -13 -1 -16 3 -4 6 -1 6 5 0 7 5 12 10 12 6 0 8
-11 4 -25 -4 -15 -2 -25 5 -25 6 0 8 7 4 17 -5 13 -3 15 12 9 18 -7 18 -6 0
14 -20 22 -31 25 -40 9z"/>
<path d="M2290 1096 c0 -2 7 -9 15 -16 13 -11 14 -10 9 4 -5 14 -24 23 -24 12z"/>
<path d="M1005 1081 c-4 -7 0 -8 11 -4 13 5 16 3 11 -10 -3 -9 -2 -19 2 -21 5
-3 8 4 7 16 -1 23 -20 35 -31 19z"/>
<path d="M2330 1055 c0 -25 14 -33 25 -15 3 6 2 10 -4 10 -6 0 -8 7 -5 15 4 8
1 15 -5 15 -6 0 -11 -11 -11 -25z"/>
<path d="M2370 1070 c0 -5 5 -10 10 -10 6 0 10 5 10 10 0 6 -4 10 -10 10 -5 0
-10 -4 -10 -10z"/>
<path d="M2289 1049 c12 -12 25 -18 28 -15 4 3 -2 13 -13 21 -29 22 -41 18
-15 -6z"/>
<path d="M1086 1013 c-10 -10 -7 -23 5 -23 5 0 7 5 3 12 -5 8 -2 9 9 5 9 -3
18 -3 21 1 6 9 -29 13 -38 5z"/>
<path d="M3178 539 c-25 -14 -24 -65 1 -79 11 -5 29 -10 40 -10 27 0 37 -19
18 -37 -12 -13 -21 -13 -46 -5 -21 8 -33 8 -37 0 -18 -28 83 -39 110 -12 34
33 15 69 -42 80 -22 5 -32 12 -32 25 0 15 8 19 40 19 40 0 53 13 24 24 -23 9
-57 7 -76 -5z"/>
<path d="M3327 532 c-26 -28 -24 -128 2 -142 59 -31 111 4 111 75 0 32 -6 51
-20 65 -25 25 -72 26 -93 2z m78 -46 c8 -42 0 -72 -22 -80 -24 -10 -45 17 -45
57 0 46 7 57 37 57 19 0 25 -7 30 -34z"/>
<path d="M3477 543 c-4 -3 -7 -42 -7 -85 0 -61 3 -78 14 -78 9 0 16 12 18 33
3 29 6 32 41 35 37 3 52 21 20 23 -10 1 -22 2 -28 4 -5 1 -16 3 -22 3 -7 1
-13 11 -13 22 0 17 7 20 45 20 33 0 45 4 45 15 0 11 -13 15 -53 15 -30 0 -57
-3 -60 -7z"/>
<path d="M3602 538 c3 -7 14 -14 26 -16 20 -3 22 -9 22 -73 0 -55 3 -69 15
-69 12 0 15 14 15 70 0 68 1 70 25 70 16 0 25 6 25 15 0 12 -14 15 -66 15 -48
0 -65 -3 -62 -12z"/>
<path d="M3743 533 c2 -10 13 -49 23 -86 22 -81 40 -85 64 -12 l17 50 17 -52
c10 -29 24 -53 31 -53 13 0 37 65 51 140 5 23 3 30 -9 30 -10 0 -20 -19 -29
-57 l-15 -58 -17 58 c-21 72 -40 74 -56 6 -14 -56 -21 -55 -39 9 -7 26 -18 42
-28 42 -10 0 -14 -6 -10 -17z"/>
<path d="M4016 542 c-3 -5 -19 -43 -35 -86 -27 -71 -28 -76 -10 -76 10 0 19 7
19 15 0 11 11 15 40 15 29 0 40 -4 40 -15 0 -8 9 -15 19 -15 18 0 17 6 -13 82
-30 78 -47 100 -60 80z m24 -61 c0 -5 3 -16 6 -25 4 -12 0 -16 -16 -16 -16 0
-20 4 -16 16 3 9 6 20 6 25 0 5 5 9 10 9 6 0 10 -4 10 -9z"/>
<path d="M4130 465 c0 -69 3 -85 15 -85 10 0 15 11 15 35 0 23 5 35 14 35 8 0
23 -16 35 -35 11 -19 27 -35 36 -35 13 0 13 5 -2 36 -12 24 -14 37 -6 42 5 4
13 17 17 29 11 35 -24 63 -79 63 l-45 0 0 -85z m95 45 c10 -17 -16 -41 -39
-38 -13 2 -22 12 -24 26 -3 19 1 22 27 22 16 0 33 -5 36 -10z"/>
<path d="M4297 543 c-4 -3 -7 -42 -7 -85 l0 -78 60 0 c41 0 60 4 60 13 0 8
-15 12 -42 12 -37 0 -43 3 -46 23 -3 20 1 22 38 22 53 0 50 24 -3 28 -29 3
-37 7 -37 23 0 16 7 19 45 19 33 0 45 4 45 15 0 11 -13 15 -53 15 -30 0 -57
-3 -60 -7z"/>
<path d="M4500 464 c0 -76 2 -85 18 -82 10 2 17 12 17 28 0 19 7 25 35 33 45
11 60 24 60 52 0 35 -31 55 -83 55 l-47 0 0 -86z m95 31 c0 -23 -43 -34 -55
-14 -14 21 1 40 29 37 18 -2 26 -9 26 -23z"/>
<path d="M4660 465 c0 -69 3 -85 15 -85 11 0 15 11 15 36 0 28 3 35 17 32 10
-2 24 -16 31 -31 13 -28 38 -45 48 -34 3 3 -2 19 -11 36 -14 29 -14 33 0 47
38 39 0 84 -72 84 l-43 0 0 -85z m95 45 c10 -16 -12 -37 -37 -35 -15 1 -24 9
-26 23 -3 18 2 22 27 22 16 0 33 -5 36 -10z"/>
<path d="M4842 534 c-18 -12 -22 -25 -22 -69 0 -63 16 -85 65 -85 43 0 65 29
65 87 0 71 -54 105 -108 67z m72 -30 c12 -32 6 -83 -11 -93 -31 -17 -53 5 -53
53 0 23 3 46 7 49 12 13 51 7 57 -9z"/>
<path d="M5000 530 c-14 -14 -20 -33 -20 -68 0 -57 20 -82 68 -82 39 0 62 23
62 61 0 27 -3 29 -35 29 -19 0 -35 -4 -35 -10 0 -5 9 -10 21 -10 24 0 23 -27
-3 -43 -29 -19 -49 9 -46 62 3 40 6 46 27 49 14 2 30 -2 35 -10 15 -18 36 -21
36 -4 0 20 -39 46 -67 46 -13 0 -32 -9 -43 -20z"/>
<path d="M5150 465 c0 -69 3 -85 15 -85 10 0 15 11 15 35 0 25 5 35 15 35 9 0
23 -16 32 -35 10 -21 24 -35 35 -35 17 0 17 2 1 35 -15 32 -15 36 0 53 22 24
21 38 -3 62 -14 14 -33 20 -65 20 l-45 0 0 -85z m94 40 c6 -17 -29 -39 -50
-31 -8 3 -14 15 -14 26 0 15 7 20 29 20 16 0 31 -6 35 -15z"/>
<path d="M5310 465 l0 -85 61 0 c44 0 60 3 56 13 -2 7 -21 12 -43 12 -32 0
-40 4 -42 22 -3 19 2 22 35 25 49 4 49 22 1 26 -29 2 -38 7 -38 22 0 15 9 19
42 22 23 2 43 9 46 16 3 9 -13 12 -57 12 l-61 0 0 -85z"/>
<path d="M5450 544 c0 -4 10 -23 22 -42 l22 -35 -22 -38 c-26 -45 -27 -49 -7
-49 9 0 21 11 27 25 6 14 14 25 18 25 4 0 15 -11 24 -25 9 -14 23 -25 31 -25
20 0 19 5 -9 47 l-25 36 25 44 c20 34 23 43 11 43 -9 0 -24 -12 -35 -27 l-19
-26 -18 26 c-15 24 -45 37 -45 21z"/>
<path d="M5610 466 c0 -71 3 -86 15 -86 13 0 15 14 13 82 -2 54 -7 83 -15 86
-10 3 -13 -18 -13 -82z"/>
<path d="M5696 537 c-12 -9 -20 -30 -23 -64 -5 -42 -2 -54 16 -72 25 -25 82
-28 101 -6 14 17 15 124 2 137 -17 17 -77 20 -96 5z m74 -42 c12 -31 3 -82
-16 -89 -18 -7 -44 3 -45 18 -1 6 -3 20 -4 31 -6 59 46 91 65 40z"/>
<path d="M5840 465 c0 -68 3 -85 14 -85 11 0 16 15 18 52 l3 53 38 -53 c56
-76 67 -70 67 33 0 69 -3 85 -15 85 -12 0 -15 -13 -15 -57 l0 -58 -41 58 c-58
81 -69 77 -69 -28z"/>
<path d="M6087 532 c-10 -10 -17 -26 -17 -35 0 -20 38 -47 66 -47 29 0 39 -27
14 -40 -12 -6 -27 -7 -44 0 -17 6 -27 6 -32 -2 -10 -15 16 -28 58 -28 84 0 91
82 8 99 -52 10 -45 35 10 41 42 5 43 6 23 18 -31 17 -67 15 -86 -6z"/>
<path d="M6246 537 c-26 -19 -33 -99 -12 -132 19 -28 69 -34 100 -12 26 19 27
109 1 137 -21 23 -63 26 -89 7z m72 -71 c3 -45 -6 -65 -30 -66 -17 0 -38 35
-38 64 0 38 17 58 45 54 16 -2 21 -12 23 -52z"/>
<path d="M6390 465 l0 -85 61 0 c42 0 59 4 57 12 -2 6 -22 12 -44 12 l-39 1
-3 73 c-2 55 -6 72 -17 72 -12 0 -15 -17 -15 -85z"/>
<path d="M6530 475 c0 -63 3 -76 19 -85 34 -18 78 -12 95 12 22 31 22 148 1
148 -12 0 -15 -13 -15 -59 0 -63 -19 -97 -47 -87 -8 3 -17 6 -19 6 -2 0 -4 32
-4 70 0 56 -3 70 -15 70 -12 0 -15 -15 -15 -75z"/>
<path d="M6680 535 c0 -9 9 -15 25 -15 24 0 25 -2 25 -70 0 -56 3 -70 15 -70
12 0 15 14 15 70 0 68 1 70 25 70 16 0 25 6 25 15 0 12 -14 15 -65 15 -51 0
-65 -3 -65 -15z"/>
<path d="M6840 465 c0 -69 3 -85 15 -85 12 0 15 16 15 85 0 69 -3 85 -15 85
-12 0 -15 -16 -15 -85z"/>
<path d="M6925 530 c-25 -28 -24 -118 1 -137 25 -18 79 -16 95 3 21 25 15 122
-8 139 -26 21 -67 18 -88 -5z m75 -36 c11 -27 3 -75 -13 -85 -19 -13 -47 3
-48 27 -1 13 -2 30 -3 37 -7 46 48 64 64 21z"/>
<path d="M7077 543 c-4 -3 -7 -42 -7 -85 0 -61 3 -78 14 -78 11 0 16 15 18 52
l3 53 38 -53 c56 -76 67 -70 67 33 0 68 -3 85 -14 85 -11 0 -16 -15 -18 -52
l-3 -53 -37 53 c-37 51 -48 59 -61 45z"/>
<path d="M7256 534 c-19 -18 -21 -60 -4 -70 6 -4 25 -10 42 -13 17 -4 32 -14
34 -23 4 -21 -31 -32 -57 -19 -13 7 -22 8 -26 1 -11 -18 6 -30 44 -30 50 0 74
18 69 55 -2 25 -9 31 -43 41 -49 13 -54 39 -8 40 39 0 53 11 33 24 -23 15 -67
12 -84 -6z"/>
</g>
</svg>
